<svg height="512" viewBox="0 0 62 62" width="512" xmlns="http://www.w3.org/2000/svg" xmlns:xlink="http://www.w3.org/1999/xlink"><linearGradient id="linear-gradient" gradientUnits="userSpaceOnUse" x2="62" y1="31" y2="31"><stop offset="0" stop-color="#2fc8ec"/><stop offset=".91" stop-color="#047bfd"/><stop offset="1" stop-color="#0073ff"/></linearGradient><g id="Layer_2" data-name="Layer 2"><g id="Layer_1-2" data-name="Layer 1"><path id="home_security" d="m22 6h-8v-2h8zm4-2h-2v2h2zm-14 0h-2v2h2zm3 54h6v-2h-6zm47-32h-4v20h-20v-2h18v-18h-7v-2h11v-1.47l-18.31-12.53h-3.38l-18.31 12.53v1.47h11v2h-7v18h12v13a5 5 0 0 1 -5 5h-26a5 5 0 0 1 -5-5v-52a5 5 0 0 1 5-5h26a5 5 0 0 1 5 5v4.16l1.69-1.16h4.62l19.69 13.47zm-60-21v3h32v-3a3 3 0 0 0 -3-3h-26a3 3 0 0 0 -3 3zm32 52v-3h-32v3a3 3 0 0 0 3 3h26a3 3 0 0 0 3-3zm0-11h-2v4h-28v-38h27.84l2.16-1.47v-.53h-32v42h32zm-12 0v-2h-9a3 3 0 0 1 -3-3v-10a3 3 0 0 1 2-2.82v-4.18a6 6 0 0 1 6-6 5.94 5.94 0 0 1 3.45 1.11l7.47-5.11h-22.92v34h24v-2zm0-16h-9a1 1 0 0 0 -1 1v10a1 1 0 0 0 1 1h9zm-4-4v-4.53l1.63-1.11a4 4 0 0 0 -1.63-.36 4 4 0 0 0 -4 4v4h8v-2zm29-3v3.18a3 3 0 0 1 2 2.82v4a9 9 0 0 1 -18 0v-4a3 3 0 0 1 2-2.82v-3.18a7 7 0 0 1 14 0zm-12 0v3h10v-3a5 5 0 0 0 -10 0zm12 6a1 1 0 0 0 -1-1h-12a1 1 0 0 0 -1 1v4a7 7 0 0 0 14 0zm-4 4a3 3 0 0 1 -2 2.82v3.18h-2v-3.18a3 3 0 1 1 4-2.82zm-2 0a1 1 0 1 0 -1 1 1 1 0 0 0 1-1zm-26 2a3 3 0 1 1 4 2.82v2.18h-2v-2.18a3 3 0 0 1 -2-2.82zm2 0a1 1 0 1 0 1-1 1 1 0 0 0 -1 1z" fill="url(#linear-gradient)" data-name="home security"/></g></g></svg>