<svg id="Layer_1" viewBox="0 0 512 512" xmlns="http://www.w3.org/2000/svg" data-name="Layer 1"><path d="m91.539 179.922v-32.407a19.107 19.107 0 0 1 17.721-19c10.972-44.784 42.48-81.9 84.4-100.724l-.575-1.287a4.481 4.481 0 0 1 2.389-5.994 158.492 158.492 0 0 1 121.046 0 4.481 4.481 0 0 1 2.389 5.994l-.574 1.287c41.923 18.823 73.43 55.94 84.4 100.724a19.108 19.108 0 0 1 17.721 19v32.407a19.116 19.116 0 0 1 -16 18.8 34.852 34.852 0 0 1 -34.727 33.378h-98.238a17.978 17.978 0 1 1 0-15h98.238a19.849 19.849 0 0 0 19.69-18.137h-3.839a5.008 5.008 0 0 1 -5-5v-60.5a5.009 5.009 0 0 1 5-5h1.66a134.922 134.922 0 0 0 -75.009-87l-.626 1.4a4.5 4.5 0 0 1 -5.814 2.332 132.664 132.664 0 0 0 -99.581 0 4.5 4.5 0 0 1 -5.814-2.332l-.627-1.4a134.918 134.918 0 0 0 -75.009 87h1.659a5.01 5.01 0 0 1 5 5v60.5a5.009 5.009 0 0 1 -5 5h-15.835a19.1 19.1 0 0 1 -19.045-19.041zm163.609 11.7a32.977 32.977 0 0 1 24.113 10.478h76.694a104.5 104.5 0 0 0 7.265-38.386c0-58.49-48-105.9-107.22-105.9s-107.22 47.415-107.22 105.9 48 105.905 107.22 105.905a107.6 107.6 0 0 0 66.105-22.519h-42.844a32.979 32.979 0 1 1 -24.113-55.478zm71.218 70.955a123.338 123.338 0 0 1 -140.732 0c-67.347 15.331-118.01 75.875-118.01 147.69v78.823a14.435 14.435 0 0 0 14.406 14.41h347.939a14.435 14.435 0 0 0 14.407-14.406v-78.823c0-71.812-50.663-132.358-118.01-147.69z"/></svg>