<svg id="Layer_1" enable-background="new 0 0 512 512" height="512" viewBox="0 0 512 512" width="512" xmlns="http://www.w3.org/2000/svg" xmlns:xlink="http://www.w3.org/1999/xlink"><linearGradient id="lg1"><stop offset=".322" stop-color="#a163f5"/><stop offset=".466" stop-color="#b074ee"/><stop offset=".752" stop-color="#d8a1dd"/><stop offset=".898" stop-color="#efbad3"/></linearGradient><linearGradient id="SVGID_1_" gradientUnits="userSpaceOnUse" x1="256.001" x2="256.001" xlink:href="#lg1" y1="438.002" y2="73.802"/><linearGradient id="SVGID_2_" gradientTransform="matrix(1 0 0 -1 0 514)" gradientUnits="userSpaceOnUse" x1="284.832" x2="284.832" xlink:href="#lg1" y1="24" y2="446.587"/><linearGradient id="SVGID_3_" gradientTransform="matrix(1 0 0 -1 0 514)" gradientUnits="userSpaceOnUse" x1="227.169" x2="227.169" xlink:href="#lg1" y1="24" y2="446.587"/><linearGradient id="SVGID_4_" gradientTransform="matrix(1 0 0 -1 0 514)" gradientUnits="userSpaceOnUse" x1="256.037" x2="256.037" xlink:href="#lg1" y1="24" y2="446.587"/><linearGradient id="SVGID_5_" gradientTransform="matrix(1 0 0 -1 0 514)" gradientUnits="userSpaceOnUse" x1="174" x2="174" xlink:href="#lg1" y1="24" y2="446.587"/><path d="m210.107 284.462-12.6 20.482c-.362.61-.611 1.281-.734 1.98-.2 1.029-.307 2.076-.426 3.076h-8.475c-12.234.013-23.881 5.244-32.016 14.381l-2.63-.886c-10.476-3.616-21.264-6.253-32.226-7.879v-9.543c13.505-8.4 22.311-22.626 23.807-38.46 7.202-3.618 10.968-11.716 9.093-19.554-.964-3.95-3.545-7.313-7.111-9.265l.738-10.577c1.072-14.59-4.03-28.959-14.061-39.607-20.086-21.481-53.782-22.612-75.263-2.527-.87.814-1.713 1.657-2.527 2.527-10.032 10.648-15.134 25.016-14.065 39.606l.732 10.562c-3.583 1.948-6.178 5.316-7.148 9.277-1.926 7.836 1.832 15.962 9.051 19.568 1.472 15.83 10.26 30.062 23.754 38.468v9.519c-10.954 1.629-21.734 4.27-32.2 7.89l-4.892 1.689c-10.106 3.414-18.344 10.865-22.752 20.578-.189.429-.372.86-.563 1.342-1.734 4.51-2.614 9.303-2.593 14.135v70.95c.017 3.225 2.645 5.825 5.87 5.808.043 0 .087-.001.13-.002h490c3.223.09 5.908-2.451 5.998-5.674.001-.044.002-.088.002-.132v-58.294c.049-5.164-.891-10.29-2.769-15.1-.185-.464-.377-.923-.577-1.372-4.674-10.304-13.413-18.208-24.133-21.828l-5.007-1.81c-11.242-3.807-22.789-6.647-34.514-8.49v-8.943c1-1.2 3.072-2.514 4.613-3.944 8.119-7.526 13.379-17.633 14.887-28.6 8.566-2.573 13.6-11.422 11.434-20.1-1.205-4.735-4.753-8.522-9.4-10.033l.681-10.044c.903-12.591-2.97-25.06-10.847-34.924-2.29-2.857-4.902-5.44-7.783-7.7-1.123-16.868-15.119-29.984-32.024-30.012h-.006c-16.763.027-30.69 12.931-31.994 29.643-12.911 10.398-19.948 26.432-18.861 42.974l.7 10.128c-4.669 1.471-8.237 5.263-9.422 10.013-1.403 5.713.295 11.744 4.472 15.886 1.898 1.959 4.265 3.4 6.876 4.189 1.934 13.318 9.676 24.93 19.676 32.461v9.006c-7.603 1.168-15.135 2.761-22.559 4.773-7.867-12.472-21.573-20.047-36.319-20.073h-8.475c-.119-1-.273-2.047-.478-3.076-.141-.703-.406-1.376-.785-1.985l-12.493-20.479c-.423-.458-1.14-1.125-2.193-1.66-1.084-.551-2.073-.733-2.7-.8h-6v-6.653c20.647-12.165 33.447-34.225 33.762-58.187.123 0 .186.012.308.012 10.095.017 18.292-8.152 18.309-18.247.01-6.061-2.984-11.732-7.995-15.142-2.166-1.566-4.72-2.51-7.384-2.729v-40.5c.069-36.798-29.706-66.684-66.504-66.752-9.752-.018-19.389 2.104-28.23 6.218l-15.987 7.434c-1.14-1.635-3.007-2.61-5-2.61-19.454.015-35.23 15.763-35.279 35.217v59.73c.023 1.08.336 2.134.906 3.052-.527.284-1.038.598-1.529.94-4.206 2.893-7.001 7.423-7.7 12.48-1.418 10.03 5.563 19.31 15.592 20.728.855.121 1.717.181 2.581.181.166 0 .218-.012.384-.016.316 23.964 13.117 46.025 33.766 58.191v6.653h-6c-.64.089-1.575.293-2.6.8-1.076.533-1.83 1.19-2.293 1.662zm114.893-91.195c1.251-.515 2.678-.371 3.8.386 1.413 1.023 2.323 2.6 2.5 4.335.458 2.817-1.066 5.583-3.692 6.7-.82.359-1.714.516-2.607.457zm-138 11.876c-.936.077-1.877-.078-2.739-.451-2.644-1.105-4.199-3.866-3.773-6.7.193-1.74 1.117-3.317 2.541-4.335 1.178-.785 2.677-.913 3.971-.338zm-65.273 122.717-3.119 23.748-13.5-6.122 8.748-8.372c2.759-2.647 4.836-5.922 6.055-9.546.61.092 1.212.193 1.816.292zm-27.208 11.115-10.953-10.533c-2.28-2.201-3.568-5.235-3.566-8.405v-8.537c4.704 1.394 9.582 2.115 14.488 2.141 4.92.048 9.817-.678 14.512-2.151v8.53c.024 3.17-1.247 6.212-3.52 8.422zm7.437 18.256-1.8 6.014-9.8-.155-1.6-6.58 5.811-2.636zm-37.506-160.431c15.565-16.636 41.668-17.504 58.304-1.94.668.625 1.315 1.272 1.94 1.94 7.75 8.223 11.693 19.321 10.868 30.59l-.692 9.981c-3.678-13.508-12.09-25.243-23.7-33.066-2.692-1.818-6.343-1.163-8.235 1.478-7.6 10.581-20.298 16.265-33.252 14.883l-3.544-.379-.188-.018c-4.306-.358-8.087 2.843-8.445 7.149 0 .005-.001.01-.001.015l-1.057 13.145c-.647-.136-1.317-.281-1.986-.428l-.885-12.76c-.823-11.27 3.121-22.368 10.873-30.59zm-17.353 53.507s2.236.94 3.003 1.193c8.8 2.9 12.977 2.519 15.326.81 1.425-1.045 2.328-2.655 2.478-4.416l1.224-15.225c14.844 1.356 29.481-4.225 39.654-15.12 7.349 6.317 12.533 14.778 14.825 24.194l2.163 8.865c.785 3.219 4.209 4.677 7.428 3.892.382-.093.754-.224 1.11-.389l7.99-3.804c.692 2.83-1.071 6.299-3.902 6.991-.117.029-.235.053-.354.074-2.88.536-4.968 3.051-4.964 5.981-.018 21.267-17.274 38.493-38.541 38.475s-38.493-17.274-38.475-38.542v.001c0-2.918-2.099-5.413-4.974-5.912-2.533-.435-4.387-2.629-4.392-5.2zm22.147 77.258c1.216 3.618 3.286 6.888 6.036 9.535l8.731 8.377-13.5 6.127-3.124-23.744c.619-.102 1.237-.203 1.857-.298zm1.856 98.435h-26.1v-36.362c0-3.314-2.686-6-6-6s-6 2.686-6 6v36.362h-16v-64.809c-.02-3.312.578-6.599 1.762-9.692.117-.297.24-.592.37-.883 3.056-6.666 8.738-11.767 15.693-14.09l4.889-1.689c5.208-1.8 10.515-3.329 15.881-4.608l4.067 30.97c.431 3.286 3.444 5.6 6.729 5.169.587-.077 1.16-.241 1.7-.486l9.535-4.326 1.895 7.684zm12.132 0 7.568-51 8.429.085 5.915 50.915zm61.768-73.356v73.356h-27.776l-6.536-56.2 2.3-7.609 8.04 3.672c3.002 1.379 6.554.064 7.933-2.939.251-.546.418-1.127.496-1.723l4.067-30.969c5.231 1.247 10.397 2.741 15.5 4.482-2.649 5.606-4.023 11.73-4.024 17.93zm155.261-47.707 3.323 5.359c1.632 10.128-2.861 20.265-11.461 25.858l-17.023 11.146-10.053-13.449 17.673-9.1.1-.055c7.989-4.29 14.176-11.3 17.441-19.759zm-18.218 5.856c-1.479 1.276-3.093 2.386-4.814 3.31l-21.2 10.906-21.186-10.909c-1.741-.923-3.376-2.033-4.877-3.309 2.03-3.5 3.079-7.483 3.034-11.529v-18.322c14.893 5.196 31.107 5.196 46 0v18.322c-.041 4.047 1.01 8.031 3.043 11.531zm-64.043-210.599 20.188-9.294c27.426-12.736 59.983-.827 72.719 26.599 3.354 7.222 5.092 15.089 5.093 23.052v19.79c-9-12.023-22.66-20.341-38.6-20.341h-39.384c-9.581 0-18.016-6.247-20.016-15.568zm-29 72.811v-52.944c-.119-10.482 6.877-19.714 17-22.435v52.945c.119 10.482-6.877 19.713-17 22.434zm10 43.158v-34.332c12-5.874 19-17.677 19-31.26v-4.811c5.842 4.148 12.851 6.333 20.016 6.24h39.384c17.489.12 32.399 12.709 35.448 29.931 0 .087.15.408.15.5v33.736c0 31.25-25.75 56.674-57 56.674s-56.998-25.428-56.998-56.678zm9.416 94.133 3.323-5.359c3.265 8.455 9.449 15.461 17.433 19.75l.1.055 17.673 9.1-10.045 13.458-17.019-11.141c-8.601-5.592-13.096-15.73-11.465-25.859zm146.584 115.704h-30v-44.084c0-3.314-2.686-6-6-6s-6 2.686-6 6v44.084h-114v-44.084c0-3.314-2.686-6-6-6s-6 2.686-6 6v44.084h-30v-73.356c.137-16.958 13.918-30.635 30.876-30.644h8.994c1.951 9.965 7.888 18.701 16.435 24.183l21.735 14.235c2.65 1.739 6.195 1.115 8.092-1.424l12.868-17.214 12.868 17.22c1.897 2.538 5.441 3.163 8.092 1.428l21.735-14.24c8.548-5.484 14.485-14.221 16.435-24.188h8.994c16.958.009 30.739 13.686 30.876 30.644zm86.04-88.3-3.474 26.449-15.576-7.069 9.838-9.414c2.996-2.873 5.23-6.448 6.5-10.4.904.134 1.809.282 2.712.434zm-29.484 12.871-12.319-11.576c-2.606-2.413-4.133-5.773-4.237-9.324v-7.1c4.66 1.583 9.519 2.503 14.435 2.734.621.023 1.572.035 2.191.035 5.566-.07 11.088-.993 16.374-2.735v7.049c-.096 3.556-1.622 6.923-4.232 9.339zm8.332 18.735-2.135 7.12-11.169-.176-1.882-7.725 6.732-3.055zm-8.332-186.306c6.788.009 13.112 3.446 16.814 9.136-12.6-4.7-25.273-2.284-34.176.883 3.59-6.193 10.203-10.009 17.362-10.019zm16.244 22.017c6.254 3.38 10.888 7.029 14.171 11.163 6.002 7.517 8.951 17.019 8.259 26.613l-.584 8.436c-6.559-3.758-8.639-11.414-8.738-11.792-.631-2.546-2.841-4.387-5.459-4.546-30.384-1.853-36.944-8.978-42.925-28.17 6.976-3.355 22.066-8.844 35.276-1.704zm-45.34 9.353c1.273 3.663 2.858 7.209 4.739 10.6-5.552 3.142-10.469 7.291-14.5 12.235.674-8.473 4.101-16.492 9.758-22.835zm-14.67 50.63c1.65.04 3.241-.613 4.387-1.8.667-.702 1.148-1.559 1.4-2.493 4.721-14.733 13.523-22.289 21.151-26.185 7.519 6.794 18.47 10.589 36.028 12.054 2.641 6.131 9.23 16.779 23.409 18.423l2.457-.049c1.162-.228 2.302.484 2.606 1.629.627 2.612-.903 5.258-3.481 6.016l-1.911.4c-3.178-.117-5.857 2.35-6 5.527-.73 20.103-17.619 35.808-37.722 35.078-19.078-.693-34.385-15.999-35.078-35.078l.015.005c-.143-3.177-2.822-5.644-6-5.527h-.786c-2.67-.22-4.736-2.432-4.773-5.11-.002-.407.044-.812.136-1.208.351-1.159 1.517-1.87 2.708-1.651zm16.805 72.257c1.262 3.951 3.488 7.525 6.477 10.4l9.819 9.421-15.591 7.069-3.475-26.458c.922-.153 1.844-.289 2.767-.432zm2.705 88.743h-20.3v-73.356c-.001-3.869-.537-7.719-1.591-11.441 1.524-.4 3.051-.786 4.575-1.145l4.449 33.68c.442 3.295 3.472 5.608 6.767 5.166.581-.078 1.148-.241 1.683-.483l10.7-4.853 2.144 8.7zm12.22 0 7.3-37.845 10.183.113 5.622 37.732zm95.48 0h-16.654c1.976-11 .718-20.805-4.2-32.358-1.348-3.036-4.902-4.405-7.938-3.058-2.995 1.329-4.375 4.811-3.104 7.831 4.288 10.069 5.125 17.421 3.092 27.352-.006.079-.023.158-.049.233h-31.389l-6.442-43.123 2.6-8.618 9.066 4.138c3.001 1.38 6.553.065 7.932-2.936.251-.547.419-1.129.497-1.726l4.423-33.674c5.924 1.392 11.775 3.083 17.528 5.067l5.242 1.81c7.571 2.53 13.755 8.086 17.078 15.344.139.315.273.634.382.908 1.319 3.395 1.976 7.011 1.936 10.653z" fill="url(#SVGID_1_)"/><path d="m274.02 195.735c3.314 0 6-2.686 6-6-.039-2.657 2.084-4.843 4.742-4.881 2.657-.039 4.843 2.084 4.881 4.742.001.047.001.093 0 .14 0 3.314 2.686 6 6 6s6-2.686 6-6c.071-9.285-7.398-16.869-16.683-16.94s-16.869 7.398-16.94 16.683c-.001.086-.001.171 0 .257 0 3.313 2.686 5.999 6 5.999z" fill="url(#SVGID_2_)"/><path d="m237.98 195.735c3.314 0 6-2.686 6-6 .072-9.285-7.397-16.87-16.682-16.941-9.285-.072-16.87 7.397-16.941 16.682-.001.086-.001.173 0 .259 0 3.314 2.686 6 6 6s6-2.686 6-6c-.038-2.657 2.085-4.843 4.742-4.881s4.843 2.085 4.881 4.742c.001.046.001.092 0 .139 0 3.314 2.686 6 6 6z" fill="url(#SVGID_3_)"/><path d="m278.267 234.48c2.402-2.283 2.498-6.081.215-8.483s-6.081-2.498-8.483-.215c-.074.071-.147.143-.218.218-7.617 7.598-19.947 7.598-27.564 0-2.324-2.362-6.123-2.393-8.485-.069s-2.393 6.123-.069 8.485l.069.069c12.306 12.277 32.228 12.277 44.534 0z" fill="url(#SVGID_4_)"/><g fill="url(#SVGID_5_)"><path d="m174 352.417c-3.314 0-6 2.686-6 6v1.563c0 3.314 2.686 6 6 6s6-2.686 6-6v-1.563c0-3.314-2.686-6-6-6z"/><path d="m174 370.959c-3.314 0-6 2.686-6 6v29.174c0 3.314 2.686 6 6 6s6-2.686 6-6v-29.174c0-3.314-2.686-6-6-6z"/></g></svg>