<svg enable-background="new 0 0 512 512" height="512" viewBox="0 0 512 512" width="512" xmlns="http://www.w3.org/2000/svg" xmlns:xlink="http://www.w3.org/1999/xlink"><linearGradient id="SVGID_1_" gradientUnits="userSpaceOnUse" x1="-11.742" x2="431.495" y1="473.413" y2="30.176"><stop offset="0" stop-color="#5580ff"/><stop offset=".3042" stop-color="#6c98ff"/><stop offset=".9442" stop-color="#a7d5ff"/><stop offset="1" stop-color="#acdbff"/></linearGradient><g id="_x31_0_Cctv"><path d="m377.102 142.59v-55.713c.498.043.985.06 1.484.107 25.115 2.461 48.426-16.865 48.426-43.192 0-23.484-18.38-42.577-41.817-43.471-68.395-2.893-112.508 14.5-151.435 29.851-40.025 15.78-71.789 28.238-116.662 12.029-5.692-24.147-27.37-42.195-53.229-42.195-30.187 0-54.744 24.557-54.744 54.741v427.039c0 16.659 13.552 30.21 30.213 30.21 16.656 0 30.208-13.552 30.208-30.21v-120.711h11.729c20.583 0 37.333-16.747 37.333-37.333v-22.422c48.929-119.718 108.695-187.71 184.7-208.459v49.745c-68.547 20.807-120.2 98.552-125.737 196.977-.708 12.43 9.367 22.434 21.333 22.434h14.792c2.917 70.599 60.588 123.847 128.971 123.847 68.359 0 126.004-53.344 128.914-123.847h9.927c11.962 0 22.041-10.001 21.333-22.434-5.531-98.451-57.187-176.212-125.739-196.993zm5.99 325.394c-25.91 9.435-54.796 9.504-80.905.001v-30.602c0-22.289 18.135-40.424 40.478-40.424 22.291 0 40.426 18.135 40.426 40.424v30.601zm10.666-4.373v-26.227c0-28.171-22.921-51.09-51.145-51.09-28.171 0-51.093 22.919-51.093 51.09v26.232c-39.556-18.833-65.316-57.57-67.29-101.59h236.818c-1.974 43.997-27.73 82.732-67.29 101.585zm-334.879 18.175c0 10.776-8.765 19.544-19.541 19.544s-19.546-8.768-19.546-19.544v-120.711h39.088v120.711zm49.062-158.044c0 14.703-11.963 26.666-26.666 26.666-18.673 0-43.201 0-61.483 0v-295.66c0-24.302 19.77-44.075 44.077-44.075 24.302 0 44.072 19.773 44.072 44.075zm10.666-49.618v-219.376-.708c46.051 14.846 80.035 1.448 119.065-13.945 37.942-14.958 80.962-31.937 147.096-29.114 17.708.674 31.578 15.086 31.578 32.812 0 19.845-17.673 34.451-36.739 32.575-112.857-10.477-196.256 52.485-261 197.756zm195.366-183.844c16.706-3.53 34.169-4.9 52.463-4.101v53.675c-8.527-1.803-17.268-2.787-26.197-2.787-8.953 0-17.716.99-26.265 2.801v-49.588zm167.534 261.071h-282.604c-6.107 0-11.025-5.105-10.687-11.169 6.073-107.915 72.848-192.449 152.023-192.449 79.144 0 145.893 84.535 151.955 192.449.338 6.071-4.589 11.169-10.687 11.169zm-138.867 60.757c-13.219 0-23.968 10.752-23.968 23.971 0 13.216 10.75 23.968 23.968 23.968s23.968-10.752 23.968-23.968c0-13.219-10.75-23.971-23.968-23.971zm0 37.273c-7.333 0-13.302-5.966-13.302-13.302s5.969-13.304 13.302-13.304 13.302 5.969 13.302 13.304-5.969 13.302-13.302 13.302zm71.894-213.634c2.083 2.081 2.083 5.458 0 7.542-2.083 2.083-5.458 2.083-7.542 0-36.843-36.843-96.764-36.869-133.576-.063-2.083 2.083-5.458 2.083-7.542 0-2.083-2.083-2.083-5.458 0-7.542 40.964-40.973 107.656-40.937 148.66.063zm-24.468 24.468c2.083 2.083 2.083 5.458 0 7.542-2.083 2.083-5.458 2.083-7.542 0-23.703-23.698-61.672-23.029-84.639-.063-2.083 2.083-5.458 2.083-7.542 0s-2.083-5.458 0-7.542c27.477-27.487 72.196-27.464 99.723.063zm-44.52 49.811c0 3.293-2.628 5.333-5.281 5.333-2.997 0-5.333-2.291-5.333-5.333 0-2.968 2.37-5.307 5.286-5.307 3.069.001 5.328 2.444 5.328 5.307zm20.051-25.345c2.083 2.083 2.083 5.461 0 7.542-2.083 2.083-5.458 2.083-7.542 0-10.042-10.048-26.007-9.764-35.702-.063-2.083 2.083-5.458 2.083-7.542 0-2.083-2.083-2.083-5.458 0-7.542 14.042-14.041 36.749-13.985 50.786.063z" fill="url(#SVGID_1_)"/></g></svg>