<svg id="Layer_1" enable-background="new 0 0 512 512" height="512" viewBox="0 0 512 512" width="512" xmlns="http://www.w3.org/2000/svg" xmlns:xlink="http://www.w3.org/1999/xlink"><linearGradient id="SVGID_1_" gradientUnits="userSpaceOnUse" x1="256" x2="256" y1=".015" y2="511.985"><stop offset="0" stop-color="#04bcff"/><stop offset="1" stop-color="#525bff"/></linearGradient><path clip-rule="evenodd" d="m421.796 410.472c3.118 3.118 3.118 8.192 0 11.31-3.146 3.118-8.192 3.118-11.338 0-3.118-3.118-3.118-8.192 0-11.31 3.146-3.118 8.192-3.118 11.338 0zm-57.422-154.486c0 59.757-48.616 108.373-108.374 108.373s-108.374-48.616-108.374-108.373c0-59.742 48.616-108.345 108.374-108.345s108.374 48.603 108.374 108.345zm-108.374 92.373c22.765 0 43.628-8.282 59.747-21.985v-11.4c0-25.052-20.368-45.433-45.404-45.433h-28.686c-25.052 0-45.433 20.381-45.433 45.433v11.376c16.124 13.717 36.998 22.009 59.776 22.009zm30.324-125.141c0-16.721-13.604-30.324-30.324-30.324s-30.324 13.604-30.324 30.324 13.604 30.324 30.324 30.324 30.324-13.604 30.324-30.324zm62.05 32.768c0-50.919-41.438-92.345-92.374-92.345s-92.374 41.426-92.374 92.345c0 19.781 6.252 38.128 16.881 53.173 2.361-25.014 19.776-45.711 43.069-52.899-8.57-8.411-13.9-20.114-13.9-33.043 0-25.543 20.781-46.324 46.324-46.324s46.324 20.781 46.324 46.324c0 12.93-5.331 24.633-13.902 33.045 23.291 7.193 40.7 27.905 43.045 52.933 10.645-15.052 16.907-33.412 16.907-53.209zm140.305 28.878c-3.114 25.443-10.328 49.954-21.497 73.038 7.638 6.694 13.942 14.904 18.528 24.31 9.064 18.59 10.343 39.589 3.6 59.13-6.741 19.553-20.688 35.31-39.271 44.366-10.72 5.224-22.246 7.859-33.833 7.859-8.501 0-17.033-1.417-25.308-4.271-6.063-2.078-11.83-4.896-17.194-8.401l-24.031 11.714c-2.907 1.417-6.384.945-8.807-1.2-2.423-2.144-3.315-5.537-2.263-8.596l2.915-8.462c-18.171 7.133-37.137 11.937-56.646 14.334-2.874 13.301-14.725 23.3-28.873 23.3-14.147 0-25.998-9.998-28.873-23.297-15.951-1.968-31.62-5.556-46.738-10.701-3.069 4.405-6.613 8.331-11.007 10.685-6.023 3.232-13.97 4.882-22.456 4.882-6.404 0-13.115-.939-19.542-2.848-25.715-7.612-48.093-20.926-66.506-39.57-18.63-18.397-31.953-40.772-39.6-66.505-4.427-14.949-3.615-31.445 2.066-42.033 2.351-4.39 6.27-7.932 10.667-11.001-5.161-15.134-8.747-30.801-10.696-46.735-13.307-2.867-23.314-14.722-23.314-28.876 0-14.14 10.007-25.985 23.316-28.849 3.066-25.121 10.106-49.259 20.981-71.999h-11.381c-7.975 0-14.463-6.488-14.463-14.463v-89.603c0-7.975 6.488-14.463 14.463-14.463h125.913c2.992 0 5.775.913 8.084 2.476 19.304-7.93 39.503-13.217 60.208-15.768 2.864-13.3 14.722-23.302 28.879-23.302 14.156 0 26.014 10.001 28.878 23.301 25.52 3.142 50.037 10.363 73.055 21.519 1.105-1.258 2.24-2.499 3.44-3.699 14.631-14.631 34.076-22.689 54.753-22.689h.001c20.676.001 40.121 8.058 54.751 22.689 30.183 30.183 30.183 79.293 0 109.476-1.199 1.199-2.441 2.337-3.703 3.447 11.171 23.087 18.386 47.612 21.502 73.078 13.312 2.863 23.321 14.708 23.321 28.85.002 14.154-10.007 26.011-23.319 28.877zm-6.222-42.393c-7.468 0-13.543 6.062-13.543 13.515 0 7.468 6.075 13.543 13.543 13.543s13.543-6.075 13.543-13.543c0-7.452-6.075-13.515-13.543-13.515zm-66.329-85.171c5.871 0 12.1-5.792 17.091-15.89.903-1.829 1.73-3.761 2.5-5.763-12.7-1.94-26.476-1.939-39.183.003.769 2.002 1.597 3.934 2.5 5.762 4.99 10.096 11.22 15.888 17.092 15.888zm-60.863-69.441h18.724c.371-6.786 1.206-13.497 2.521-19.935-4.331-1.369-8.458-2.98-12.311-4.838-4.822 7.635-7.802 16.102-8.934 24.773zm60.862-53.413c-5.872 0-12.101 5.792-17.092 15.89-.903 1.829-1.73 3.761-2.5 5.763 12.7 1.94 26.476 1.939 39.182-.003-.769-2.002-1.597-3.934-2.5-5.763-4.988-10.094-11.217-15.886-17.09-15.887.001 0 .001 0 0 0zm51.927 28.64c-3.854 1.856-7.981 3.466-12.311 4.834 1.315 6.439 2.15 13.151 2.521 19.939h18.724c-1.131-8.671-4.111-17.139-8.934-24.773zm8.938 40.773h-18.726c-.37 6.796-1.205 13.516-2.521 19.963 4.331 1.369 8.458 2.98 12.31 4.838 4.827-7.643 7.808-16.121 8.937-24.801zm-86.851 0c.329 5.532.994 10.988 2.008 16.206 15.555-2.672 32.408-2.672 47.957-.003 1.014-5.216 1.679-10.671 2.007-16.203zm51.971-16c-.329-5.523-.994-10.969-2.007-16.178-7.781 1.336-15.884 2.01-23.99 2.01-8.1 0-16.195-.673-23.966-2.006-1.013 5.208-1.677 10.653-2.006 16.174zm15.242-37.516c-3.083-2.797-6.405-5.245-9.915-7.333.041.081.083.156.124.238 1.443 2.923 2.737 6.015 3.895 9.234 2.036-.65 4.002-1.365 5.896-2.139zm-72.538-7.334c-3.511 2.089-6.834 4.537-9.918 7.336 1.894.775 3.86 1.491 5.897 2.141 1.158-3.219 2.452-6.312 3.896-9.236l.001-.002c.04-.082.083-.158.124-.239zm-29.554 60.85c1.129 8.681 4.11 17.159 8.938 24.801 3.854-1.856 7.981-3.466 12.311-4.835-1.317-6.448-2.153-13.169-2.523-19.966zm19.637 37.545c3.083 2.798 6.406 5.246 9.917 7.334-.041-.082-.084-.157-.125-.239-1.443-2.923-2.737-6.015-3.895-9.234-2.036.649-4.003 1.364-5.897 2.139zm72.541 7.332c3.51-2.088 6.833-4.537 9.916-7.334-1.894-.775-3.86-1.491-5.896-2.141-1.157 3.219-2.451 6.311-3.895 9.234-.041.083-.084.159-.125.241zm-204.983-119.207c0 7.468 6.075 13.543 13.543 13.543s13.543-6.075 13.543-13.543c0-7.452-6.075-13.515-13.543-13.515s-13.543 6.063-13.543 13.515zm-85.164 100.116v-67.547l-39.085 33.768zm-13.492-77.036h-95.847l47.919 41.407zm-109.348 9.48v67.565l39.088-33.789zm13.495 77.048h95.857l-37.835-32.699-4.867 4.205c-1.502 1.297-3.366 1.946-5.23 1.946s-3.729-.649-5.23-1.947l-4.866-4.205zm-18.405 130.392c7.468 0 13.543-6.075 13.543-13.543 0-7.452-6.075-13.515-13.543-13.515s-13.543 6.063-13.543 13.515c0 7.468 6.075 13.543 13.543 13.543zm144.751 187.562c-.233-.229-.637-.546-1.209-.841l-31.961-16.601-5.953 9.53c-4.127 6.679-11.496 8.831-18.752 5.451-12.134-5.736-26.197-18.319-33.504-25.311l-.238-.238c-5.593-5.823-19.249-20.736-25.27-33.437-3.437-7.201-1.33-14.594 5.376-18.814l9.562-5.952-16.568-31.954c-.308-.592-.64-1.003-.875-1.235-.058.029-.124.065-.199.108l-.015.009c-.782.451-1.588.909-2.408 1.376-5.435 3.091-12.877 7.324-14.834 10.977-3.677 6.853-4.017 19.155-.827 29.922 6.872 23.127 18.829 43.217 35.536 59.704l.075.075c16.499 16.718 36.586 28.665 59.702 35.507 10.771 3.199 23.06 2.87 29.891-.796 3.643-1.951 7.867-9.384 10.952-14.811.478-.839.945-1.663 1.406-2.462.046-.077.083-.147.113-.207zm95.249 25.351c0-7.452-6.075-13.515-13.543-13.515s-13.543 6.062-13.543 13.515c0 7.468 6.075 13.543 13.543 13.543s13.543-6.075 13.543-13.543zm166.6-124.358c-.001 0-.002-.001-.003-.001-32.008-11.035-67.03 6.031-78.07 38.046-6.072 17.61-3.868 36.787 6.047 52.615 1.283 2.048 1.571 4.567.785 6.852l-4.881 14.171 10.904-5.315c1.111-.542 2.311-.809 3.504-.809 1.698 0 3.386.54 4.796 1.596 5.138 3.847 10.816 6.851 16.876 8.927 15.526 5.354 32.189 4.344 46.93-2.841 14.741-7.184 25.806-19.685 31.154-35.2 5.349-15.5 4.335-32.155-2.855-46.901-7.189-14.744-19.685-25.803-35.187-31.14zm17.758-9.513c9.626-20.519 15.923-42.221 18.775-64.713-9.019-3.174-16.042-10.605-18.652-19.872h-57.71c-4.418 0-8-3.582-8-8s3.582-8 8-8h57.712c2.613-9.254 9.634-16.675 18.65-19.845-2.85-22.49-9.139-44.183-18.75-64.686-11.423 6.413-24.345 9.845-37.798 9.845 0 0 0 0-.001 0-20.677 0-40.122-8.058-54.753-22.689-25.021-25.021-29.273-63.043-12.811-92.514-20.449-9.605-42.146-15.903-64.695-18.778-3.176 9.014-10.605 16.033-19.869 18.644v57.739c0 4.418-3.582 8-8 8s-8-3.582-8-8v-57.739c-9.265-2.611-16.695-9.632-19.87-18.649-18.848 2.406-37.24 7.251-54.837 14.449v86.911c0 7.975-6.488 14.463-14.464 14.463h-96.65c-11.951 22.888-19.619 47.394-22.857 73.003 9.017 3.17 16.04 10.591 18.652 19.846h57.712c4.418 0 8 3.582 8 8s-3.582 8-8 8h-57.71c-2.612 9.272-9.642 16.706-18.667 19.877 1.698 13.388 4.642 26.567 8.779 39.356 4.581-2.182 8.543-1.815 11.156-1.054 4.456 1.299 8.27 4.636 10.736 9.396l17.432 33.617c3.496 6.729 2.056 13.866-3.505 17.35l-11.579 7.207c5.404 10.646 17.813 24.013 21.771 28.143 10.55 10.08 20.955 18.128 28.146 21.792l7.235-11.582c3.525-5.561 10.64-6.987 17.331-3.513l33.619 17.462c4.741 2.438 8.086 6.239 9.39 10.686.767 2.615 1.137 6.588-1.058 11.185 12.776 4.126 25.955 7.073 39.357 8.786 3.169-9.02 10.605-16.046 19.879-18.657v-57.738c0-4.418 3.582-8 8-8s8 3.582 8 8v57.738c9.271 2.61 16.704 9.631 19.876 18.647 22.494-2.865 44.206-9.163 64.681-18.768l.011-.033c-10.782-19.266-12.857-41.996-5.626-62.969 13.915-40.353 58.062-61.864 98.409-47.958.003.001.001 0 .003.001 4.392 1.511 8.577 3.404 12.55 5.614zm-14.7 61.901c-3.119 3.118-3.119 8.192 0 11.31 3.118 3.118 8.191 3.118 11.31 0s3.119-8.192 0-11.31c-3.118-3.118-8.192-3.118-11.31 0zm-57.458 0c-3.118 3.118-3.118 8.192 0 11.31s8.192 3.118 11.31 0 3.118-8.192 0-11.31c-3.117-3.118-8.192-3.118-11.31 0z" fill="url(#SVGID_1_)" fill-rule="evenodd"/></svg>