<svg id="Layer_1" enable-background="new 0 0 512 512" height="512" viewBox="0 0 512 512" width="512" xmlns="http://www.w3.org/2000/svg" xmlns:xlink="http://www.w3.org/1999/xlink"><linearGradient id="SVGID_1_" gradientTransform="matrix(1 0 0 -1 0 512.5)" gradientUnits="userSpaceOnUse" x1="256.05" x2="256.05" y1="512.45" y2=".45"><stop offset="0" stop-color="#f704fe"/><stop offset="1" stop-color="#24bce3"/></linearGradient><g clip-rule="evenodd" fill-rule="evenodd"><circle cx="256" cy="256" fill="url(#SVGID_1_)" r="256"/><g fill="#fffffe"><path d="m209.9 177.9c3.5-5.8 8.1-16.5.5-24.2l-36.4-36.4c-3.2-3.2-7.5-4.9-11.8-4.9s-8.5 1.6-11.8 4.9l-21.1 21.1 65.1 65.1c4.8-8.4 10.5-17.1 15.5-25.6z"/><path d="m284.1 316.4c-27.5-18.8-69.7-60.9-88.5-88.5-3.7-5.4-4.9-11.6-3.7-17.5l-67.2-67.2-2.4 2.4c-10 9.7-12.4 24.8-7.2 44.8 9 34.1 40.1 80.3 83.2 123.4s89.2 74.2 123.5 83.2c20 5.3 35.1 2.9 44.7-7.1.1-.2 2.1-2.1 2.4-2.4l-67.2-67.2c-6.1.9-12.2-.3-17.6-3.9z"/><path d="m394.6 338-36.4-36.4c-7.6-7.6-18.4-3-24.2.5-8.5 5.1-17.2 10.7-25.8 15.4l65.1 65.1 21.1-21.1c3.1-3.1 4.8-7.3 4.8-11.8.3-4.5-1.4-8.7-4.6-11.7z"/><path d="m320.2 215.6c-.6.5-1.3.7-2 .7s-1.4-.2-2-.7l-9.7-7.4-52.5 40h128.3l-52.5-40z"/><path d="m301.2 204.1-53.8-41v81.8z"/><path d="m382.5 159.9h-128.4l64.1 48.9z"/><path d="m389 163.1-53.6 41 53.6 40.8z"/></g></g></svg>