<svg id="Layer_5" enable-background="new 0 0 64 64" height="512" viewBox="0 0 64 64" width="512" xmlns="http://www.w3.org/2000/svg"><path d="m60 34c-1.105 0-2 .895-2 2 0-.889 0-2 0-2 0-1.105-.895-2-2-2s-2 .895-2 2c0-.75 0-2 0-2 0-1.105-.895-2-2-2s-2 .895-2 2c0-4.938 0-10 0-10 0-1.105-.895-2-2-2s-2 .895-2 2v21.056c0 .621-.145 1.233-.422 1.789l-.578 1.155h-1l-1.124-5.622c-.51-2.546-2.745-4.378-5.341-4.378-.848 0-1.535.687-1.535 1.535 0 .303.09.599.258.852l1.029 1.544c.469.703.768 1.507.873 2.346l.709 5.67c.086.691.351 1.347.769 1.904l2.362 3.149v3h18v-3l1.578-3.155c.277-.556.422-1.168.422-1.789v-12.056c0-1.105-.895-2-2-2z"/><path d="m41 58h20v3h-20z"/><path d="m44 25v-3c0-.966.358-1.841.931-2.534-2.44-2.032-4.35-4.573-5.601-7.492-.219-.51-.33-1.05-.33-1.605 0-1.167.435-2.218 1.194-2.977l1.392-1.392c1.289-1.29 3.539-1.29 4.828 0l1.763 1.763c.531.53.823 1.236.823 1.987v.132c0 1.07-.595 2.033-1.553 2.512-.276.138-.447.416-.447.724v.132c0 .216.084.419.237.572l.94.94c.153.154.356.238.573.238h.132c.309 0 .586-.171.724-.447.479-.958 1.442-1.553 2.512-1.553h.132c.75 0 1.456.292 1.986.823l1.764 1.763c.645.645 1 1.502 1 2.414s-.355 1.77-1 2.414l-1.392 1.392c-.694.694-1.633 1.099-2.608 1.167v2.027h6c1.654 0 3-1.346 3-3v-16c0-1.654-1.346-3-3-3h-20c-1.654 0-3 1.346-3 3v16c0 1.654 1.346 3 3 3z"/><path d="m46.553 10.606c.276-.138.447-.416.447-.724v-.132c0-.216-.084-.419-.237-.572l-1.763-1.764c-.526-.526-1.474-.526-2 0l-1.392 1.392c-.386.386-.608.922-.608 1.468 0 .377.057.653.167.912 1.2 2.799 3.069 5.214 5.442 7.077.435-.162.9-.263 1.391-.263 1.845 0 3.387 1.263 3.847 2.965.5-.033.991-.216 1.347-.572l1.392-1.393c.263-.263.414-.628.414-1s-.151-.737-.414-1l-1.763-1.763c-.153-.153-.356-.237-.573-.237h-.132c-.309 0-.586.171-.724.447-.479.958-1.442 1.553-2.512 1.553h-.132c-.75 0-1.456-.292-1.986-.823l-.94-.94c-.532-.53-.824-1.236-.824-1.987v-.132c0-1.07.595-2.033 1.553-2.512z"/><path d="m26 35h-20c-1.654 0-3 1.346-3 3v16c0 1.654 1.346 3 3 3h20c1.654 0 3-1.346 3-3v-16c0-1.654-1.346-3-3-3zm1 18h-22v-14h22z"/><path d="m7 42.414v7.505l4.169-3.336z"/><path d="m18.707 45.879 4.879-4.879h-15.172l4.879 4.879c1.446 1.445 3.968 1.445 5.414 0z"/><path d="m25 49.919v-7.505l-4.17 4.17z"/><path d="m16 49c-1.211 0-2.363-.371-3.334-1.052l-3.815 3.052h14.298l-3.815-3.052c-.971.681-2.123 1.052-3.334 1.052z"/><path d="m16 11c-1.103 0-2 .897-2 2v2c0 1.103.897 2 2 2s2-.897 2-2v-1-1c0-1.103-.897-2-2-2z"/><path d="m26 3h-20c-1.654 0-3 1.346-3 3v16c0 1.654 1.346 3 3 3h20c1.654 0 3-1.346 3-3v-16c0-1.654-1.346-3-3-3zm-2 15c0 1.654-1.346 3-3 3-1.51 0-2.751-1.125-2.958-2.58-.6.36-1.293.58-2.042.58-2.206 0-4-1.794-4-4v-2c0-2.206 1.794-4 4-4s4 1.794 4 4v1 1 3c0 .551.449 1 1 1s1-.449 1-1v-5c0-3.309-2.691-6-6-6s-6 2.691-6 6v2c0 3.309 2.691 6 6 6v2c-4.411 0-8-3.589-8-8v-2c0-4.411 3.589-8 8-8s8 3.589 8 8z"/></svg>