<svg fill="none" height="512" viewBox="0 0 20 20" width="512" xmlns="http://www.w3.org/2000/svg" xmlns:xlink="http://www.w3.org/1999/xlink"><linearGradient id="paint0_linear_3139_257" gradientUnits="userSpaceOnUse" x1="10" x2="10" y1="0" y2="20"><stop offset="0" stop-color="#ee9ae5"/><stop offset="1" stop-color="#5961f9"/></linearGradient><path clip-rule="evenodd" d="m10 20c-5.514 0-10-4.486-10-10s4.486-10 10-10 10 4.486 10 10-4.486 10-10 10zm-.99991-8.414-1.293-1.293c-.09284-.0928-.20306-.1665-.32437-.2167-.12131-.0503-.25133-.0761-.38263-.0761s-.26132.0258-.38262.0761c-.12131.0502-.23153.1239-.32438.2167-.09284.0928-.16649.2031-.21674.3244-.05024.1213-.07611.2513-.07611.3826s.02587.2613.07611.3826c.05025.1213.1239.2316.21674.3244l3 3c.09266.0932.20282.1671.32415.2176s.25144.0764.38286.0764c.1314 0 .2615-.0259.3828-.0764.1214-.0505.2315-.1244.3242-.2176l3-3c.0928-.0928.1665-.2031.2167-.3244.0503-.1213.0761-.2513.0761-.3826s-.0258-.2613-.0761-.3826c-.0502-.1213-.1239-.2316-.2167-.3244-.0929-.0928-.2031-.1665-.3244-.2167-.1213-.0503-.2513-.0761-.3826-.0761s-.2613.0258-.3826.0761c-.1213.0502-.2316.1239-.3244.2167l-1.293 1.293v-5.586c0-.26522-.1054-.51957-.2929-.70711-.1875-.18753-.4419-.29289-.7071-.29289-.26522 0-.51958.10536-.70711.29289-.18754.18754-.2929.44189-.2929.70711z" fill="url(#paint0_linear_3139_257)" fill-rule="evenodd"/></svg>