<svg id="Layer_1" enable-background="new 0 0 512 512" height="512" viewBox="0 0 512 512" width="512" xmlns="http://www.w3.org/2000/svg" xmlns:xlink="http://www.w3.org/1999/xlink"><linearGradient id="SVGID_1_" gradientUnits="userSpaceOnUse" x1=".003" x2="511.997" y1="256" y2="256"><stop offset="0" stop-color="#e921c3"/><stop offset=".1018" stop-color="#cd29c0"/><stop offset=".3341" stop-color="#933ab8"/><stop offset=".5484" stop-color="#6548b3"/><stop offset=".7376" stop-color="#4452ae"/><stop offset=".8946" stop-color="#2f58ac"/><stop offset="1" stop-color="#285aab"/></linearGradient><path d="m256 0c-141.2 0-256 114.8-256 256s114.8 256 256 256 256-114.8 256-256-114.8-256-256-256zm0 480c-123.5 0-224-100.5-224-224s100.5-224 224-224 224 100.5 224 224-100.5 224-224 224zm-123.5-209.9c-6.4-6.1-6.7-16.2-.6-22.6l107.8-114.1c6.1-6.4 16.2-6.7 22.6-.6l114.1 107.8c6.4 6.1 6.7 16.2.6 22.6s-16.2 6.7-22.6.6l-102.5-96.8-96.8 102.5c-3.1 3.3-7.4 5-11.6 5-4-.1-7.9-1.5-11-4.4zm247 79.6c6.4 6.1 6.7 16.2.6 22.6s-16.2 6.7-22.6.6l-102.5-96.7-96.8 102.5c-3.1 3.3-7.4 5-11.6 5-3.9 0-7.9-1.4-11-4.4-6.4-6.1-6.7-16.2-.7-22.6l107.7-114.1c2.9-3.1 6.9-4.9 11.2-5 4.2-.1 8.4 1.4 11.4 4.4z" fill="url(#SVGID_1_)"/></svg>