<svg fill="none" height="39" viewBox="0 0 38 39" width="38" xmlns="http://www.w3.org/2000/svg"><g clip-rule="evenodd" fill="rgb(0,0,0)" fill-rule="evenodd"><path d="m19.6408 11.6839c.2999.2857.3115.7604.0258 1.0603l-5 5.25c-.2856.3-.7604.3116-1.0603.0259-.3-.2857-.3115-.7604-.0259-1.0604l5-5.25c.2857-.2999.7604-.3115 1.0604-.0258z"/><path d="m24.6408 18.0201c-.3.2857-.7747.2741-1.0604-.0259l-5-5.25c-.2856-.2999-.2741-.7746.0259-1.0603.2999-.2857.7747-.2741 1.0603.0258l5 5.25c.2857.3.2741.7747-.0258 1.0604z"/><path d="m19.1235 11.477c.4142 0 .75.3358.75.75v14c0 .4142-.3358.75-.75.75s-.75-.3358-.75-.75v-14c0-.4142.3358-.75.75-.75z"/><path d="m19.1235 1.85638c-9.59349 0-17.37057 7.77709-17.37057 17.37062 0 9.5935 7.77708 17.3706 17.37057 17.3706 9.5936 0 17.3706-7.7771 17.3706-17.3706 0-9.59353-7.777-17.37062-17.3706-17.37062zm-18.87057 17.37062c0-10.42196 8.44866-18.870616 18.87057-18.870616 10.422 0 18.8706 8.448656 18.8706 18.870616 0 10.4219-8.4486 18.8706-18.8706 18.8706-10.42191 0-18.87057-8.4487-18.87057-18.8706z"/></g></svg>