<svg fill="none" height="512" viewBox="0 0 20 20" width="512" xmlns="http://www.w3.org/2000/svg" xmlns:xlink="http://www.w3.org/1999/xlink"><linearGradient id="paint0_linear_3139_250" gradientUnits="userSpaceOnUse" x1="10" x2="10" y1="0" y2="20"><stop offset="0" stop-color="#ee9ae5"/><stop offset="1" stop-color="#5961f9"/></linearGradient><path clip-rule="evenodd" d="m10 0c5.514 0 10 4.486 10 10s-4.486 10-10 10-10-4.486-10-10 4.486-10 10-10zm1.0002 8.414 1.293 1.293c.0928.09284.203.16649.3243.21674s.2513.07611.3827.07611c.1313 0 .2613-.02586.3826-.07611s.2315-.1239.3244-.21674c.0928-.09285.1664-.20307.2167-.32437.0502-.12131.0761-.25133.0761-.38263s-.0259-.26132-.0761-.38263c-.0503-.1213-.1239-.23153-.2167-.32437l-3-3c-.0927-.09319-.2029-.16713-.3242-.2176-.1213-.05046-.2514-.07644-.3828-.07644-.13146 0-.26157.02598-.3829.07644-.12133.05047-.23149.12441-.32415.2176l-3 3c-.09284.09284-.16649.20307-.21674.32437-.05025.12131-.07611.25133-.07611.38263s.02586.26132.07611.38262c.05025.12131.1239.23153.21674.32438.09285.09284.20307.16649.32438.21674.1213.05025.25132.07611.38262.07611s.26132-.02586.38263-.07611c.1213-.05025.23153-.1239.32437-.21674l1.293-1.293v5.586c0 .2652.10536.5196.2929.7071.18753.1875.44188.2929.70715.2929.2652 0 .5195-.1054.7071-.2929.1875-.1875.2929-.4419.2929-.7071z" fill="url(#paint0_linear_3139_250)" fill-rule="evenodd"/></svg>