<svg id="Layer_1" enable-background="new 0 0 64 64" height="512" viewBox="0 0 64 64" width="512" xmlns="http://www.w3.org/2000/svg"><path d="m22.891 26.72c0 2.83-2.301 5.129-5.131 5.129s-5.12-2.3-5.12-5.129c0-2.83 2.29-5.13 5.12-5.13s5.131 2.3 5.131 5.13z"/><circle cx="32" cy="22.55" r="7.75"/><path d="m46.24 21.59c2.83 0 5.13 2.3 5.13 5.13s-2.3 5.129-5.13 5.129-5.12-2.3-5.12-5.129c0-2.83 2.29-5.13 5.12-5.13z"/><path d="m57 38.939v3.381c0 .42-.26.8-.65.938-2.119.771-4.31 1.29-6.55 1.562v-.02-4.739c.011-2.33-.858-4.569-2.42-6.301.92-.148 1.8-.479 2.591-.97 3.099.739 7.009 2.44 7.029 6.149z"/><path d="m47.8 40.061v4.739c0 .841-.53 1.601-1.319 1.88-9.359 3.36-19.601 3.36-28.96 0-.79-.279-1.32-1.039-1.32-1.88v-4.739c.01-5.609 5.95-8.169 10.62-9.261 3.17 2 7.2 1.99 10.37 0 4.668 1.11 10.588 3.639 10.609 9.261z"/><path d="m16.62 33.76c-1.56 1.73-2.42 3.971-2.42 6.301v4.739.021c-2.23-.271-4.43-.789-6.54-1.561-.4-.14-.66-.52-.66-.94v-3.381c.01-3.709 3.94-5.41 7.03-6.149.79.489 1.67.819 2.59.97z"/></svg>