<svg enable-background="new 0 0 64 64" height="512" viewBox="0 0 64 64" width="512" xmlns="http://www.w3.org/2000/svg"><g id="_x33_4-_Map"><g><path d="m25.17 15.54c3.83.14 7.63 1.83 10.13 4.77 4.42 5.19 2.8 12.13-.11 17.62-2.52 4.76-6.08 9.08-10.02 12.73v9.34l19.08-5.06v-50.94l-19.08 5.06z"/><path d="m32.49 40.47c2.3-3.5 4.27-7.53 4.55-11.78.31-4.84-2.6-9.06-6.97-10.98-7.52-3.3-18.13 1.27-17.92 10.35.11 4.66 2.34 9.09 4.9 12.86 2.17 3.21 4.73 6.2 7.56 8.84 2.96-2.76 5.65-5.9 7.88-9.29zm-12.5-8.37c-1.95-1.69-2.64-4.49-1.48-6.84 1.14-2.29 3.64-3.58 6.14-3.58 3 .02 6 2.02 6.54 5.1 1.07 6.15-7.07 8.91-11.2 5.32z"/><path d="m24.49 22.73c-2.83.06-5.69 2.21-5.51 5.27.17 2.87 2.94 4.75 5.63 4.75 2.82-.02 5.72-2.1 5.62-5.15-.09-2.97-2.97-4.92-5.74-4.87z"/><path d="m45.28 54.98 13.72 4.95v-50.91l-13.72-4.95z"/><path d="m17.86 43.89c-3.43-4.46-6.55-9.86-6.75-15.63-.24-7.18 6.15-12.48 12.97-12.71v-6.49l-19.08-5.06v50.94l19.09 5.06v-9.3c-2.28-2.06-4.35-4.38-6.23-6.81z"/></g></g></svg>