<svg id="Capa_1" enable-background="new 0 0 512 512" height="512" viewBox="0 0 512 512" width="512" xmlns="http://www.w3.org/2000/svg"><g><path d="m418.36 114.853h36.213c4.721 0 9.167-2.223 12-6l42.427-56.568c4.479-5.972 3.885-14.328-1.393-19.607l-28.284-28.284c-5.279-5.279-13.635-5.873-19.607-1.394l-56.569 42.427c-3.777 2.833-6 7.279-6 12v36.213l-102.256 102.256 21.213 21.213z"/><path d="m481.3 332.808c-30.929-30.929-76.51-38.485-114.605-22.681l-164.822-164.822c15.804-38.095 8.248-83.676-22.681-114.605-27.446-27.446-66.428-36.487-101.48-27.132-11.119 2.968-14.776 16.942-6.638 25.079l54.958 54.958-42.426 42.426-54.959-54.957c-8.138-8.137-22.112-4.48-25.079 6.639-9.355 35.051-.314 74.034 27.132 101.48 30.929 30.929 76.51 38.485 114.605 22.681l164.822 164.822c-15.804 38.095-8.248 83.676 22.681 114.605 27.446 27.446 66.429 36.487 101.48 27.132 11.119-2.968 14.776-16.942 6.639-25.079l-54.958-54.958 42.426-42.426 54.958 54.958c8.138 8.138 22.112 4.48 25.079-6.639 9.355-35.053.314-74.035-27.132-101.481z"/><path d="m10.251 423.967c-13.668 13.668-13.668 35.829 0 49.498l28.284 28.284c13.668 13.668 35.829 13.668 49.497 0l20.607-20.607-77.781-77.782z"/><path d="m205.502 327.711 11.607-11.607-21.213-21.213-11.607 11.607-3.535-3.535c-13.668-13.668-35.829-13.668-49.497 0l-79.185 79.185 77.782 77.781 79.185-79.185c13.668-13.668 13.668-35.829 0-49.498z"/></g></svg>