<svg id="line_gradient_flaticon" height="512" viewBox="0 0 64 64" width="512" xmlns="http://www.w3.org/2000/svg" xmlns:xlink="http://www.w3.org/1999/xlink" data-name="line gradient flaticon"><linearGradient id="linear-gradient" gradientUnits="userSpaceOnUse" x1="4.803" x2="59.2" y1="32" y2="32"><stop offset="0" stop-color="#00c0ff"/><stop offset="1" stop-color="#5558ff"/></linearGradient><path d="m58.46436 21.87451-7.95145-5.4341c.02515-.08765-.03781-8.47264-.03781-8.47264a2.0417 2.0417 0 0 0 -2.03369-2.04541h-2.998a2.0417 2.0417 0 0 0 -2.03369 2.04541v3.61823l-10.84527-7.41168a1.001 1.001 0 0 0 -1.1289 0l-25.89649 17.69775a1.699 1.699 0 0 0 1.0211 3.08786h3.2997a.774.774 0 0 1 .84034.68018v31.40969a2.881 2.881 0 0 0 2.7998 2.9502h37a2.881 2.881 0 0 0 2.7998-2.9502v-6.16992a1.00008 1.00008 0 0 0 -2 0v6.16992a.88587.88587 0 0 1 -.7998.9502h-37a.88587.88587 0 0 1 -.7998-.9502v-31.40966a2.76662 2.76662 0 0 0 -2.84034-2.68014h-2.36767l24.50781-16.74857 24.50781 16.74857h-2.36767a2.76662 2.76662 0 0 0 -2.84034 2.68018v21.2397a1.00013 1.00013 0 0 0 2-.00005v-21.23969a.774.774 0 0 1 .84034-.68018h3.2998a1.69894 1.69894 0 0 0 1.02442-3.08545zm-9.98926-6.82672-3.06464-2.09442.0329-5.031 3.03174.04541zm-18.01172 27.07428h3.07324a2.54386 2.54386 0 0 0 -.00008-5.0874h-3.07316a2.54386 2.54386 0 0 0 0 5.0874zm0-3.0874h3.07324a.5437.5437 0 0 1 0 1.0874h-3.07324a.54384.54384 0 0 1 0-1.0874zm-13.31938-5.30667c-1.4422-.07969-1.15663 1.68123-1.22413 2.69186-.17647 10.47717 10.64022 18.60672 20.63248 15.41925 17.62136-5.656 13.99128-31.07657-4.55256-31.49929a16.007 16.007 0 0 0 -14.88602 10.00344 1.00013 1.00013 0 0 0 1.85256.75387 14.01481 14.01481 0 0 1 13.03367-8.75729c15.46356.25414 19.45246 21.12905 5.26982 27.12527l.0002-4.08572a2.694 2.694 0 0 1 .90381-1.99267 9.27553 9.27553 0 0 0 -3.832-15.92529 1.00719 1.00719 0 0 0 -1.25194.96779v4.73c.05429.16309-.75.78261-.83054.897a.2451.2451 0 0 1 -.16946.063h-1.15337v-5.69002a1.01188 1.01188 0 0 0 -1.10742-1c-3.37046-.03423-5.87075 3.22718-5.54776 6.69743-1.16713.02738-1.68373 1.25322-1.581 2.32262a9.289 9.289 0 0 0 3.122 6.934 2.69663 2.69663 0 0 1 .90766 1.99614v4.08661a14.15741 14.15741 0 0 1 -8.81006-13.04608c-.08921-.97367.56948-2.45103-.77594-2.69192zm9.13721-.35938a3.89517 3.89517 0 0 1 2.65527-3.813v4.56348h-2.65523zm-1.58101 3.0806c0-.11328.00439-.22461.01074-.33008.00958-.00006.56709.00009.57511 0h4.65527c1.03679-.05711 2.9192.27684 3.69635-.61379.67886-.60912 1.51166-1.32729 1.4521-2.34619l.00007-3.3115a7.31823 7.31823 0 0 1 1.75179 12.04734 4.69837 4.69837 0 0 0 -1.57163 3.48439v4.72883a14.1623 14.1623 0 0 1 -6.54-.00031v-4.72852a4.70062 4.70062 0 0 0 -1.5757-3.48779 7.292 7.292 0 0 1 -2.4541-5.44238z" fill="url(#linear-gradient)"/></svg>