<svg id="_x31_9_shop" enable-background="new 0 0 3873 3873" height="512" viewBox="0 0 3873 3873" width="512" xmlns="http://www.w3.org/2000/svg" xmlns:xlink="http://www.w3.org/1999/xlink"><linearGradient id="XMLID_3_" gradientUnits="userSpaceOnUse" x1="373.265" x2="3499.718" y1="538.848" y2="3665.301"><stop offset="0" stop-color="#fc00ff"/><stop offset="1" stop-color="#00dbde"/></linearGradient><path id="XMLID_680_" d="m290.5 3442.4h3292v140.1h-3292zm1681-595.3h980.6v-665.4h-980.6zm-420.2 35h-70c-38.7 0-70-31.4-70-70s31.4-70 70-70h70v-420.3h-630.4v980.6h630.4zm-630.4-700.5h630.4v-140.1h-630.4zm2045.2-645.5c-74.2 110.5-200.4 183.3-343.2 183.3s-269-72.8-343.2-183.3c-74.2 110.5-200.4 183.3-343.2 183.3s-269-72.8-343.2-183.3c-74.2 110.5-200.4 183.3-343.2 183.3s-269-72.8-343.2-183.3c-60.5 90.1-155.6 155.1-266.2 176.1v1590.2h140.1v-1330.9c0-38.7 31.4-70 70-70h770.5c38.7 0 70 31.4 70 70v1330.8h1541v-1590.2c-110.5-21-205.6-86-266.2-176zm56.1 1451h-1120.7c-38.7 0-70-31.4-70-70v-805.5c0-38.7 31.4-70 70-70h1120.7c38.7 0 70 31.4 70 70v805.5c0 38.7-31.4 70-70 70zm280.1-1407.9c2.2.1 4.4.1 6.7.1 126.7 0 233.4-86.3 264.4-203.1h-528.1c30.4 114.5 133.7 199.9 257 203zm-679.4.1c126.4 0 233-86.3 264.1-203.1h-528.1c31 116.8 137.7 203.1 264 203.1zm-686.4 0c126.4 0 233-86.3 264.1-203.1h-528.1c31 116.8 137.6 203.1 264 203.1zm-686.4 0c126.4 0 233-86.4 264.1-203.1h-528.2c31 116.7 137.6 203.1 264.1 203.1zm-686.5 0h2.9c1.3-.1 2.7-.1 4.1-.1h1.2c122.8-3.6 225.5-88.7 255.9-203h-528.1c31 116.8 137.7 203.1 264 203.1zm58-1288.8-33.9 105.1h2697.5l-33.9-105.1zm-79 245.1-226 700.4h3239.8l-226-700.4z" fill="url(#XMLID_3_)"/></svg>